<svg width="16" height="16" viewBox="0 0 16 16" fill="none" xmlns="http://www.w3.org/2000/svg">
<path d="M7.99667 0C8.15 0 8.30333 0.0314218 8.44333 0.0911233L14.7233 2.60173C15.4567 2.89395 16.0033 3.5758 16 4.39906C15.9833 7.5161 14.6233 13.2192 8.88 15.8115C8.32333 16.0628 7.67667 16.0628 7.12 15.8115C1.37335 13.2192 0.0166818 7.5161 1.51616e-05 4.39906C-0.00331817 3.5758 0.543347 2.89395 1.27668 2.60173L7.55333 0.0911233C7.69333 0.0314218 7.84333 0 7.99667 0ZM7.99667 2.09898V13.9796C12.5967 11.8806 13.8333 7.23016 13.8633 4.44619L7.99667 2.10212V2.09898Z" fill="black"/>
</svg>
