<svg width="16" height="16" viewBox="0 0 16 16" fill="none" xmlns="http://www.w3.org/2000/svg">
<path d="M14.8315 0.00335172C15.1467 -0.0221156 15.4555 0.0988541 15.6783 0.321693C15.9011 0.544532 16.0221 0.853323 15.9966 1.16848C15.8693 2.7379 15.4427 5.18595 14.5227 7.52575C14.4654 7.66901 14.3476 7.77725 14.198 7.82181L11.6226 8.59538C11.4985 8.63358 11.4157 8.745 11.4157 8.87552C11.4157 9.03788 11.5462 9.1684 11.7086 9.1684H12.9374C13.3194 9.1684 13.5645 9.57587 13.3671 9.90376C13.2398 10.1171 13.1029 10.324 12.9629 10.5277C12.8992 10.62 12.8037 10.6869 12.6954 10.7219L9.58526 11.6515C9.4611 11.6897 9.37833 11.8011 9.37833 11.9316C9.37833 12.094 9.50885 12.2245 9.67121 12.2245H10.1806C10.6453 12.2245 10.8491 12.7784 10.4607 13.0331C8.29597 14.4656 6.07714 14.4115 4.65415 14.0295C4.24986 13.9212 3.89013 13.7143 3.55906 13.4596L1.2288 15.7899C0.948657 16.07 0.490246 16.07 0.210105 15.7899C-0.0700351 15.5098 -0.0700351 15.0513 0.210105 14.7712L2.75684 12.2245L2.77275 12.2404C2.79504 12.199 2.82369 12.1608 2.8587 12.1258L7.8503 7.13101C8.13044 6.85087 8.13044 6.39246 7.8503 6.11232C7.57016 5.83218 7.11174 5.83218 6.8316 6.11232L2.55628 10.3845C2.27296 10.6678 1.79226 10.5245 1.76043 10.1234C1.62354 8.42984 2.05648 6.20464 4.07158 4.18954C6.97167 1.28945 12.1638 0.219824 14.8283 0.00335172H14.8315Z" fill="black"/>
</svg>
